<?xml version="1.0" encoding="iso-8859-1"?>
<!-- Uploaded to: SVG Repo, www.svgrepo.com, Generator: SVG Repo Mixer Tools -->
<svg height="800px" width="800px" version="1.1" id="Layer_1" xmlns="http://www.w3.org/2000/svg" xmlns:xlink="http://www.w3.org/1999/xlink" 
	 viewBox="0 0 509 509" xml:space="preserve">
<circle style="fill:#6EB1E1;" cx="254.5" cy="254.5" r="254.5"/>
<path style="fill:#F0582F;" d="M263.3,220.4h-17.6l5.3-110.6c0.1-1.9,1.6-3.3,3.5-3.3l0,0c1.9,0,3.4,1.5,3.5,3.3L263.3,220.4z"/>
<g>
	<polygon style="fill:#646B79;" points="221.3,238 137.1,231.6 131.3,233.8 221.3,251.9 	"/>
	<polygon style="fill:#646B79;" points="287.7,238 371.9,231.6 377.7,233.8 287.7,251.9 	"/>
</g>
<circle style="fill:#F1F3F7;" cx="127.2" cy="304.4" r="25.3"/>
<circle style="fill:#333842;" cx="127.2" cy="304.4" r="19.2"/>
<circle style="fill:#DDDEE6;" cx="127.2" cy="304.4" r="5.9"/>
<path style="fill:#DEDEDF;" d="M214,269.4l-151-7.9c0,0-62.9,2-43.9,3.5s215.7,33.5,215.7,33.5L214,269.4z"/>
<circle style="fill:#F1F3F7;" cx="381.8" cy="304.4" r="25.3"/>
<circle style="fill:#333842;" cx="381.8" cy="304.4" r="19.2"/>
<circle style="fill:#DDDEE6;" cx="381.8" cy="304.4" r="5.9"/>
<path style="fill:#DEDEDF;" d="M295,269.4l151-7.9c0,0,62.9,2,43.9,3.5c-19.1,1.4-215.7,33.6-215.7,33.6L295,269.4z"/>
<ellipse style="fill:#F1F3F7;" cx="254.5" cy="258.6" rx="46.5" ry="48.6"/>
<ellipse style="fill:#DEDEDF;" cx="254.5" cy="276.2" rx="25.4" ry="24.3"/>
<ellipse style="fill:#BDBDBE;" cx="254.5" cy="276.2" rx="11.8" ry="11.3"/>
<g>
	<polygon style="fill:#6EB1E1;" points="253.6,246.8 253.6,234.9 238.9,233.8 234.8,245.6 	"/>
	<polygon style="fill:#6EB1E1;" points="278.4,245.9 293,248 283.5,234.3 274.3,233.7 	"/>
	<polygon style="fill:#6EB1E1;" points="271.2,233.8 256.5,234.9 256.5,246.8 275.3,245.6 	"/>
	<polygon style="fill:#6EB1E1;" points="235.9,233.7 226.6,234.3 217.2,248 231.7,245.9 	"/>
</g>
</svg>