<?xml version="1.0" encoding="UTF-8"?>
<svg version="1.1" xmlns="http://www.w3.org/2000/svg" width="2000" height="1500">
<path d="M0 0 C660 0 1320 0 2000 0 C2000 495 2000 990 2000 1500 C1340 1500 680 1500 0 1500 C0 1005 0 510 0 0 Z " fill="#000000" transform="translate(0,0)"/>
<path d="M0 0 C78.21 0 156.42 0 237 0 C237 109.56 237 219.12 237 332 C158.79 332 80.58 332 0 332 C0 222.44 0 112.88 0 0 Z " fill="#FEFEFE" transform="translate(296,580)"/>
<path d="M0 0 C0.73554611 -0.0049649 1.47109222 -0.00992981 2.22892761 -0.01504517 C4.65897567 -0.02963112 7.08895835 -0.03646448 9.51904297 -0.04199219 C11.21572876 -0.04774863 12.91241455 -0.05350629 14.60910034 -0.05926514 C18.168277 -0.06976642 21.72743113 -0.07561411 25.28662109 -0.07910156 C29.82571479 -0.08457023 34.3645061 -0.10856691 38.90350533 -0.13707352 C42.41074461 -0.15579294 45.9179126 -0.16091053 49.4251976 -0.16243744 C51.09718343 -0.16544591 52.76916854 -0.17341271 54.44110489 -0.18662262 C70.91603958 -0.3074495 85.16481387 2.74925614 97.63623047 14.47363281 C107.86465429 25.52783763 108.93884782 38.11210472 108.92675781 52.54663086 C108.9327526 53.98335618 108.93956032 55.42007829 108.94711304 56.85679626 C108.96468594 60.73726232 108.96946478 64.61764 108.97074461 68.498142 C108.972172 70.92971242 108.97645271 73.36126079 108.98173904 75.7928257 C109.00021222 84.29638708 109.00841328 92.79988601 109.00683594 101.3034668 C109.00563605 109.19636783 109.02671521 117.08899475 109.05832326 124.98182648 C109.08458675 131.78558041 109.095199 138.58924539 109.09392512 145.39304954 C109.09341833 149.44446557 109.09894268 153.49563783 109.12028122 157.54700279 C109.1398339 161.3631039 109.13967375 165.17873301 109.12524796 168.99485207 C109.12220397 171.0389094 109.13871717 173.08296767 109.15612793 175.12695312 C109.06518299 188.69483495 106.23317744 200.91691233 96.89404297 211.05175781 C84.09288775 223.26862794 68.36069788 225.63874879 51.49169922 225.62988281 C49.83319345 225.63700071 48.17469009 225.64470203 46.51618958 225.6529541 C43.05247136 225.66633987 39.58898084 225.66799474 36.12524414 225.66210938 C31.72083143 225.65622262 27.31752457 225.68678948 22.91332531 225.72722626 C19.49085263 225.75327583 16.06864005 225.75596512 12.64608192 225.75233459 C11.02401263 225.75401014 9.40192923 225.76349901 7.77995872 225.78147888 C-7.81245004 225.93531618 -21.68715451 222.13497691 -33.46142578 211.21582031 C-40.71537886 203.36122144 -44.59383713 194.20659149 -44.63792419 183.43977356 C-44.64789932 182.12647064 -44.65787445 180.81316772 -44.66815186 179.46006775 C-44.66904748 178.02163709 -44.66971114 176.58320626 -44.67016602 175.14477539 C-44.67779508 173.61643065 -44.68622385 172.08808972 -44.69538879 170.55975342 C-44.71726957 166.42105694 -44.72612425 162.28243431 -44.73121524 158.14368653 C-44.73486702 155.55300865 -44.74111139 152.96234987 -44.74821663 150.37167931 C-44.77269075 141.31931083 -44.7857582 132.26699947 -44.78930664 123.21459961 C-44.79293828 114.80019775 -44.82281214 106.38616143 -44.86471123 97.9718712 C-44.89950151 90.72912702 -44.9148566 83.48650346 -44.91555268 76.24367636 C-44.91634265 71.92619658 -44.92495123 67.60908938 -44.95355034 63.29169655 C-44.97988086 59.22605349 -44.98185374 55.16108794 -44.9658947 51.09539795 C-44.96409192 49.61202697 -44.97066397 48.12861568 -44.98671341 46.64533043 C-45.12177655 33.34050269 -42.21343905 23.06837788 -32.82080078 13.34863281 C-23.68220721 5.21252407 -12.2078242 0.01978014 0 0 Z " fill="#FDFDFD" transform="translate(1434.36376953125,619.8388671875)"/>
<path d="M0 0 C0.73595398 -0.00992981 1.47190796 -0.01985962 2.23016357 -0.03009033 C4.65299314 -0.05917198 7.07556005 -0.07291652 9.49853516 -0.08398438 C10.33360218 -0.08963913 11.1686692 -0.09529388 12.02904129 -0.10112 C16.45654805 -0.13105424 20.88392555 -0.14953914 25.31152344 -0.15820312 C29.84140215 -0.16910779 34.37005872 -0.21703536 38.89955711 -0.27414703 C42.41906938 -0.31178493 45.93830004 -0.32183147 49.45799637 -0.32487488 C51.12507361 -0.33085244 52.79215056 -0.34664771 54.45902634 -0.37324524 C70.31135932 -0.60794433 85.54098675 2.84551916 97.36572266 14.19726562 C107.14603927 24.71727005 108.78645605 35.93908124 108.78320312 49.89575195 C108.78761048 52.01593427 108.82411548 54.1340861 108.86181641 56.25390625 C108.86768007 57.61392526 108.87165247 58.97395403 108.87353516 60.33398438 C108.88175293 61.55561279 108.8899707 62.77724121 108.8984375 64.03588867 C108.31853104 67.95856249 107.20385425 69.55306325 104.41259766 72.32226562 C97.64346573 75.76620994 90.43354569 76.78395609 83.03759766 74.63085938 C79.61811759 73.12855104 77.89279522 72.01477276 75.72509766 68.88867188 C73.88321523 63.88379492 73.95965082 59.17824704 73.91259766 53.88476562 C73.85039911 46.91408617 73.63806221 41.56748908 70.41259766 35.32226562 C70.08259766 34.33226562 69.75259766 33.34226562 69.41259766 32.32226562 C62.75864938 28.4470448 54.74107412 28.88553845 47.31103516 28.92382812 C46.07519684 28.92095795 44.83935852 28.91808777 43.56607056 28.91513062 C40.96575459 28.91309766 38.36542306 28.91857343 35.76513672 28.93115234 C31.79310894 28.9472433 27.82209445 28.93126218 23.85009766 28.91210938 C21.31624125 28.91409141 18.78238548 28.91793425 16.24853516 28.92382812 C15.06609222 28.91775543 13.88364929 28.91168274 12.66537476 28.90542603 C6.48989002 28.9579612 1.81945342 29.22639717 -3.58740234 32.32226562 C-5.94387235 34.66306319 -5.94387235 34.66306319 -7.58740234 37.32226562 C-7.94600342 37.85239258 -8.30460449 38.38251953 -8.67407227 38.92871094 C-10.08546748 42.62753976 -9.89249916 46.25528785 -9.88818359 50.18164062 C-9.89461128 51.47645355 -9.89461128 51.47645355 -9.90116882 52.79742432 C-9.90690605 54.62307866 -9.90741685 56.44875586 -9.90307617 58.27441406 C-9.89992921 61.04858149 -9.92333715 63.82166848 -9.94873047 66.59570312 C-9.95100503 68.37434762 -9.95170623 70.15299497 -9.95068359 71.93164062 C-9.95989334 72.7527533 -9.96910309 73.57386597 -9.97859192 74.41986084 C-9.93420773 80.02999387 -8.93695709 84.20628269 -6.58740234 89.32226562 C-2.13729797 93.55529174 0.49882853 94.44578354 6.53613281 94.44824219 C7.82572906 94.45204895 9.11532532 94.45585571 10.44400024 94.45977783 C11.48307463 94.46006863 11.48307463 94.46006863 12.54314041 94.4603653 C15.47388349 94.46379408 18.40440744 94.48519428 21.33507347 94.50559616 C26.78672189 94.54344559 32.23814655 94.57490712 37.68994141 94.57275391 C41.48570848 94.57195612 45.28068473 94.59578934 49.07624435 94.63463593 C50.50876664 94.6449512 51.94138195 94.64672938 53.37392044 94.63898468 C70.34110177 94.5565574 85.49216125 98.99009652 98.28759766 110.63476562 C107.21488705 120.18289769 108.72374444 131.95866886 108.71337891 144.45898438 C108.71980659 146.19363701 108.71980659 146.19363701 108.72636414 147.96333313 C108.73208841 150.40320178 108.73262178 152.84308749 108.72827148 155.28295898 C108.72512249 158.98060891 108.74855792 162.67744941 108.77392578 166.375 C108.77620032 168.75716046 108.77690155 171.13932305 108.77587891 173.52148438 C108.78508865 174.61047531 108.7942984 175.69946625 108.80378723 176.82145691 C108.72916643 189.45215927 106.55099212 200.3543584 98.10009766 209.94726562 C87.13987629 219.63304265 75.84768784 225.38576062 61.02124023 225.49926758 C60.3065155 225.50583878 59.59179077 225.51240997 58.85540771 225.5191803 C56.5059801 225.53878 54.15661604 225.55054669 51.80712891 225.56054688 C50.99891882 225.5646224 50.19070873 225.56869793 49.35800743 225.57289696 C45.07892493 225.59370221 40.79987396 225.60802709 36.52075195 225.61743164 C32.12744747 225.62847722 27.73465205 225.66287147 23.34152699 225.70260334 C19.93976473 225.72889108 16.53812157 225.73713424 13.13626671 225.74071312 C11.51811986 225.74554866 9.89997722 225.75707485 8.28193092 225.77575111 C-1.01173704 225.87634729 -9.03546028 225.41275961 -17.58740234 221.32226562 C-18.3923967 220.94415237 -19.19739105 220.56603912 -20.02677917 220.1764679 C-31.35102004 214.62027239 -39.11364926 205.88206522 -43.19287109 194.05664062 C-45.10544097 187.50676863 -45.03861388 180.93016697 -44.97851562 174.1706543 C-44.96229937 171.99595683 -44.97850633 169.82308192 -44.99755859 167.6484375 C-44.99557817 166.25194907 -44.99173866 164.85546175 -44.98583984 163.45898438 C-44.98245605 162.20819092 -44.97907227 160.95739746 -44.97558594 159.66870117 C-44.44436891 155.08920949 -42.95859291 152.45995635 -39.43115234 149.53320312 C-35.57304798 147.89032901 -32.2365834 147.88277058 -28.08740234 147.94726562 C-27.34103516 147.93566406 -26.59466797 147.9240625 -25.82568359 147.91210938 C-21.25875457 147.93635856 -18.26262088 148.35879715 -14.58740234 151.32226562 C-11.05012295 155.06138284 -10.09669139 157.30491901 -10.11865234 162.43554688 C-10.10447266 163.60150391 -10.09029297 164.76746094 -10.07568359 165.96875 C-10.08345863 168.40104179 -10.09127077 170.83333346 -10.09912109 173.265625 C-10.05962677 182.98223317 -10.05962677 182.98223317 -5.58740234 191.32226562 C0.12776033 196.80072736 6.81030009 195.88319629 14.35009766 195.81835938 C15.71720456 195.81851454 17.0843119 195.8200064 18.45141602 195.82276917 C21.30944387 195.82414983 24.16696786 195.81165209 27.02490234 195.78881836 C30.67662433 195.76043394 34.32750993 195.76317512 37.97929382 195.77590847 C40.80016137 195.78288471 43.62083778 195.77505437 46.44168091 195.76265144 C48.43905555 195.75597976 50.43645715 195.76026684 52.43383789 195.76475525 C54.26603882 195.74572899 54.26603882 195.74572899 56.13525391 195.72631836 C57.20525635 195.72091537 58.27525879 195.71551239 59.37768555 195.70994568 C63.67737676 195.16070258 66.98269517 193.75208908 70.06893921 190.66601562 C73.73317905 184.9268013 74.14576088 180.03734321 74.07666016 173.32226562 C74.08144379 172.28714844 74.08622742 171.25203125 74.09115601 170.18554688 C74.09454333 168.00714591 74.08542316 165.82869329 74.06445312 163.65039062 C74.03767233 160.33152032 74.06424238 157.01603176 74.09619141 153.69726562 C74.0928871 151.57225822 74.08648045 149.44725291 74.07666016 147.32226562 C74.08678131 146.33871094 74.09690247 145.35515625 74.10733032 144.34179688 C73.99961658 137.95468172 72.89182171 133.08186323 68.41259766 128.32226562 C64.49579576 125.38406931 61.65797167 124.94934091 56.80908203 124.95336914 C55.49000854 124.94648575 54.17093506 124.93960236 52.81188965 124.93251038 C52.11099716 124.93568834 51.41010468 124.93886631 50.68797302 124.94214058 C48.47418363 124.95130502 46.26123185 124.94096321 44.04748535 124.92552185 C37.75546523 124.88559607 31.46351254 124.88420086 25.17138672 124.88647461 C21.31396305 124.88652623 17.45698628 124.86709684 13.59968567 124.83714104 C11.44110212 124.82646735 9.28343023 124.83835981 7.12487793 124.85096741 C-8.01336404 124.81170423 -22.18116147 120.55967468 -33.46240234 110.13476562 C-42.9457428 100.04069126 -44.90040792 87.40818627 -44.88818359 74.07617188 C-44.89246872 73.02501694 -44.89675385 71.973862 -44.90116882 70.89085388 C-44.90688202 68.679766 -44.90743475 66.46865933 -44.90307617 64.25756836 C-44.89991475 60.89794508 -44.92341922 57.53920235 -44.94873047 54.1796875 C-44.95100381 52.02018339 -44.9517068 49.86067694 -44.95068359 47.70117188 C-44.96449821 46.21321861 -44.96449821 46.21321861 -44.97859192 44.69520569 C-44.90328908 33.19554231 -41.49440296 23.1518048 -33.91162109 14.38476562 C-25.15035721 5.97995574 -12.10183253 0.03963424 0 0 Z " fill="#FCFCFC" transform="translate(711.58740234375,619.677734375)"/>
<path d="M0 0 C1.01071815 -0.0098568 1.01071815 -0.0098568 2.04185486 -0.01991272 C4.26748789 -0.03958661 6.49305338 -0.05129968 8.71875 -0.0612793 C9.48341583 -0.06535482 10.24808167 -0.06943035 11.03591919 -0.07362938 C15.08921027 -0.09447244 19.14246775 -0.10877757 23.19580078 -0.11816406 C27.35366835 -0.12918002 31.51099359 -0.16352839 35.66867065 -0.20333576 C38.88947442 -0.22967155 42.11015276 -0.23787115 45.33105469 -0.24144554 C46.86185335 -0.24627374 48.39264786 -0.25777821 49.92333984 -0.27648354 C65.7711653 -0.45799399 80.76067713 3.53469799 92.7265625 14.5559082 C102.05480523 24.68999389 102.75534561 36.27118555 102.71972656 49.33447266 C102.71874799 51.86970487 102.76059121 54.40196599 102.8046875 56.93676758 C102.80989132 58.56241238 102.81258275 60.18806758 102.8125 61.8137207 C102.82889526 62.56384933 102.84529053 63.31397797 102.86218262 64.08683777 C102.78593573 69.9148151 101.22326081 72.25216243 97.21875 76.17700195 C91.70218426 79.26556465 85.34927944 78.780995 79.21875 78.17700195 C75.33096232 77.0133104 72.93445776 75.19219026 70.56640625 71.83325195 C68.19830316 65.40848531 68.78311162 58.61196456 68.77929688 51.8293457 C68.65097839 44.13908627 68.09450623 37.92773379 62.28125 32.30200195 C58.15245076 30.04992964 54.72399428 28.92696619 50.00463867 28.88647461 C48.98975876 28.8737149 47.97487885 28.8609552 46.929245 28.84780884 C45.84271133 28.84558319 44.75617767 28.84335754 43.63671875 28.84106445 C42.50857254 28.83440765 41.38042633 28.82775085 40.21809387 28.82089233 C37.83348213 28.81077744 35.44884215 28.80607495 33.06420898 28.80639648 C29.42969695 28.80203012 25.79640615 28.76571487 22.16210938 28.7277832 C19.84114997 28.72191337 17.52018482 28.71794509 15.19921875 28.71606445 C14.11875778 28.70169342 13.03829681 28.68732239 11.9250946 28.67251587 C5.65227311 28.71019714 0.31823425 29.22981193 -4.78125 33.17700195 C-6.5236457 35.44859656 -7.56363732 37.54695857 -8.78125 40.17700195 C-9.27625 41.16700195 -9.27625 41.16700195 -9.78125 42.17700195 C-9.88119203 44.02590783 -9.9163452 45.87844415 -9.92169189 47.7300415 C-9.92740204 48.91051559 -9.93311218 50.09098969 -9.93899536 51.30723572 C-9.94011322 52.60907303 -9.94123108 53.91091034 -9.94238281 55.25219727 C-9.94701028 56.63190341 -9.95203484 58.01160828 -9.95742798 59.39131165 C-9.97056302 63.14560808 -9.97699936 66.89988663 -9.98143864 70.65420246 C-9.98436826 72.99973352 -9.98847291 75.34525968 -9.99294281 77.69078827 C-10.00662214 85.02920963 -10.01628603 92.36761979 -10.0201447 99.70605302 C-10.02462331 108.17715919 -10.04216015 116.64810383 -10.0711453 125.11916089 C-10.09276904 131.66616561 -10.10284939 138.21312492 -10.10418582 144.76016498 C-10.10523358 148.67054877 -10.11113477 152.58078082 -10.12900543 156.49112701 C-10.14549763 160.17161164 -10.14763617 163.85183066 -10.13886642 167.5323391 C-10.13773018 169.52313036 -10.15143966 171.51391284 -10.1656189 173.50465393 C-10.16004974 174.69640732 -10.15448059 175.88816071 -10.14874268 177.11602783 C-10.15020924 178.14768192 -10.1516758 179.17933601 -10.1531868 180.24225235 C-9.71192202 183.72403109 -8.45918684 186.11580943 -6.78125 189.17700195 C-6.45125 190.16700195 -6.12125 191.15700195 -5.78125 192.17700195 C-3.35741923 193.34653611 -3.35741923 193.34653611 -0.78125 194.17700195 C-0.12125 194.50700195 0.53875 194.83700195 1.21875 195.17700195 C3.09625004 195.28851017 4.97767369 195.33625899 6.85839844 195.35400391 C8.04012634 195.36683914 9.22185425 195.37967438 10.43939209 195.39289856 C11.72267395 195.40028549 13.00595581 195.40767242 14.328125 195.4152832 C15.64282776 195.42335495 16.95753052 195.4314267 18.31207275 195.43974304 C21.09964876 195.45477229 23.88719927 195.46460841 26.67480469 195.47216797 C30.23698628 195.48321491 33.79854016 195.51759325 37.36050034 195.55733967 C40.76634969 195.58985537 44.17213244 195.59428942 47.578125 195.6027832 C49.4909024 195.62904533 49.4909024 195.62904533 51.44232178 195.65583801 C56.32543244 195.64387667 60.24645923 195.55528342 64.82128906 193.77539062 C71.5477993 186.48514129 71.77315169 178.0035645 71.64347458 168.48111916 C71.61656871 166.39863984 71.61696053 164.31765682 71.62417603 162.23503113 C71.639703 156.32294236 71.60540244 150.41140045 71.55859375 144.49951172 C71.53165585 140.86318628 71.53392363 137.2277649 71.55305862 133.59140587 C71.55413484 132.21556355 71.54380334 130.83965969 71.52143478 129.46399879 C71.32592688 117.41401015 71.32592688 117.41401015 75.07275391 112.84375 C79.14192868 108.83226388 83.58751204 108.93853284 89.03125 108.86450195 C89.73056641 108.83549805 90.42988281 108.80649414 91.15039062 108.77661133 C96.28474511 108.71417297 99.19786441 109.73136715 103.21875 113.17700195 C106.11096131 117.10774205 106.60015613 119.92479738 106.62280273 124.76464844 C106.64182899 126.73841713 106.64182899 126.73841713 106.66123962 128.75205994 C106.65918628 130.18407346 106.65619668 131.61608589 106.65234375 133.0480957 C106.65691143 134.53198992 106.66221874 136.01588204 106.66822815 137.49977112 C106.67715774 140.61256484 106.67474347 143.7251021 106.66479492 146.83789062 C106.65338851 150.78824382 106.67338736 154.73769195 106.70271206 158.68792629 C106.72125773 161.75701863 106.72074418 164.82590225 106.71507454 167.8950367 C106.7149231 169.34879881 106.72081715 170.80257675 106.73336601 172.25628471 C106.84109325 186.79895841 104.62704768 200.05230223 94.4765625 211.06762695 C81.89107753 223.0786707 66.34898856 225.65486706 49.73046875 225.64575195 C48.13922362 225.65287098 46.547981 225.66057245 44.95674133 225.66882324 C41.6342555 225.68220495 38.31200703 225.68386578 34.98950195 225.67797852 C30.76667273 225.67209233 26.54499714 225.70265781 22.32239056 225.7430954 C19.03888493 225.76915732 15.7556502 225.77183318 12.47205544 225.76820374 C10.91697101 225.76987817 9.36187173 225.77935586 7.80689049 225.79734802 C-7.75955239 225.95765601 -21.34084825 221.71150657 -33.1015625 211.0793457 C-37.94424027 206.01329719 -40.78903605 200.87360232 -42.78125 194.17700195 C-43.29216438 192.55795708 -43.29216438 192.55795708 -43.81340027 190.90620422 C-45.35296004 184.65018756 -45.06872006 178.25920828 -45.0559082 171.85742188 C-45.06026155 170.41597735 -45.06544676 168.97453514 -45.07139587 167.53309631 C-45.0847318 163.63623522 -45.08537048 159.73947145 -45.08283257 155.842592 C-45.08175895 152.57998359 -45.08665633 149.31739456 -45.091438 146.05479032 C-45.10251499 138.35161616 -45.10298111 130.64849076 -45.09692383 122.9453125 C-45.09088818 115.02117571 -45.10318877 107.09721666 -45.1244939 99.17311019 C-45.14215879 92.34989204 -45.14810348 85.52673022 -45.14485615 78.70349008 C-45.14305056 74.6371132 -45.14560647 70.57086306 -45.15957069 66.50450706 C-45.17222392 62.67699605 -45.17013486 58.84976023 -45.15715981 55.02225304 C-45.15481049 53.62555342 -45.15746899 52.22883398 -45.16578293 50.83215714 C-45.24743476 36.03678273 -42.30653581 24.36766142 -32.46875 13.05200195 C-24.15458976 5.0943944 -11.37803454 0.09209417 0 0 Z " fill="#FCFCFC" transform="translate(1629.78125,619.822998046875)"/>
<path d="M0 0 C1.13515549 -0.01283524 2.27031097 -0.02567047 3.43986511 -0.03889465 C4.66796402 -0.04628159 5.89606293 -0.05366852 7.16137695 -0.0612793 C8.42552933 -0.06935104 9.6896817 -0.07742279 10.99214172 -0.08573914 C13.67123071 -0.0995816 16.35019661 -0.11059685 19.02929688 -0.11816406 C22.44441433 -0.12919788 25.85887469 -0.16356611 29.2737608 -0.20333576 C32.54873368 -0.23593466 35.82376658 -0.2402927 39.09887695 -0.2487793 C40.31685471 -0.26628738 41.53483246 -0.28379547 42.78971863 -0.30183411 C50.98420952 -0.28100415 56.81559028 0.53043403 62.8371582 6.55200195 C65.73891939 11.23946233 66.71122801 15.59839481 66.72958374 21.07025146 C66.73811371 22.22520111 66.74664368 23.38015076 66.75543213 24.57009888 C66.75452576 25.82321869 66.75361938 27.0763385 66.75268555 28.36743164 C66.75867552 29.71168387 66.76548214 31.05593268 66.77304077 32.400177 C66.79066278 36.04089142 66.79539461 39.68151173 66.79667234 43.32226467 C66.79809694 45.60085202 66.80237242 47.87941568 66.80766678 50.15799713 C66.82615622 58.11877452 66.83433897 66.07948506 66.83276367 74.0402832 C66.83156335 81.44185655 66.85264675 88.84313778 66.884251 96.24463725 C66.91047269 102.61430241 66.92112847 108.98387253 66.91985285 115.3535912 C66.91934484 119.15118392 66.92493801 122.94851701 66.94620895 126.7460556 C66.9656906 130.32162778 66.96564903 133.89669539 66.95117569 137.47228622 C66.94811504 139.39547952 66.96469539 141.3186734 66.98205566 143.24179077 C66.92577179 151.066331 66.20945077 158.68634722 61.00555992 164.9225502 C55.77528538 169.8723603 48.16023841 168.85535097 41.4621582 168.77075195 C40.09887803 168.769038 38.73559456 168.76910942 37.37231445 168.77087402 C34.52433448 168.76922646 31.67714706 168.75063527 28.8293457 168.71899414 C25.19453744 168.67931727 21.56076502 168.67495227 17.92578125 168.68245697 C15.11343033 168.68553911 12.30130854 168.67336231 9.48901367 168.65632629 C7.50222081 168.64596096 5.51538433 168.64544988 3.52856445 168.6451416 C-2.86047918 168.56168683 -7.97679804 168.48303854 -13.5378418 165.17700195 C-17.98910233 159.76330671 -19.7796307 154.23739001 -19.81199646 147.28375244 C-19.82197159 146.1288028 -19.83194672 144.97385315 -19.84222412 143.78390503 C-19.84288879 142.53078522 -19.84355347 141.27766541 -19.84423828 139.98657227 C-19.85186693 138.64231917 -19.86029563 137.2980704 -19.86946106 135.9538269 C-19.89134531 132.31312247 -19.9001969 128.672502 -19.9052875 125.03173923 C-19.90893871 122.75315173 -19.91518276 120.47458596 -19.92228889 118.19600677 C-19.94676368 110.23523499 -19.95983072 102.27452817 -19.96337891 94.3137207 C-19.96701119 86.9120886 -19.99688929 79.51087189 -20.03878349 72.10936666 C-20.07356357 65.73970103 -20.08892869 59.37017256 -20.08962494 53.0004127 C-20.09041523 49.20275051 -20.09903825 45.40551174 -20.1276226 41.6079483 C-20.15393607 38.03229902 -20.15593587 34.4574202 -20.13996696 30.88171768 C-20.13730861 28.95849991 -20.15924613 27.03529624 -20.18215942 25.11221313 C-20.11817099 17.46904389 -19.00550654 11.51871505 -14.5378418 5.17700195 C-10.25369281 1.13779691 -5.74985657 0.056627 0 0 Z " fill="#010101" transform="translate(1442.537841796875,647.822998046875)"/>
<path d="M0 0 C2.62766102 1.87536543 3.52702748 3.41448267 4.91015625 6.36328125 C5.3583184 9.48926822 5.3476746 12.58939081 5.3425293 15.7434082 C5.35781677 17.14901756 5.35781677 17.14901756 5.37341309 18.58302307 C5.40354656 21.67259701 5.4128097 24.7618609 5.421875 27.8515625 C5.4387214 29.99677054 5.45687158 32.1419687 5.47627258 34.28715515 C5.52378279 39.92759109 5.5535857 45.567987 5.57971191 51.20855713 C5.60951216 56.96659247 5.65604437 62.72448987 5.70117188 68.48242188 C5.78721671 79.77596952 5.85455688 91.06954555 5.91015625 102.36328125 C7.96155305 100.00053372 10.0120955 97.63704618 12.0625 95.2734375 C12.92264709 94.28277283 12.92264709 94.28277283 13.8001709 93.27209473 C18.29744227 88.08661179 22.73914966 82.85669846 27.1640625 77.609375 C30.06108526 74.17822345 32.98428426 70.76983557 35.91015625 67.36328125 C39.76154563 62.87834605 43.59648725 58.38033589 47.41015625 53.86328125 C51.72540825 48.75213263 56.07182283 43.66858983 60.4296875 38.59375 C63.77307942 34.69744572 67.09805806 30.78620988 70.41015625 26.86328125 C75.73321333 20.55912685 81.09214505 14.28587092 86.47900391 8.03613281 C87.49189405 6.85218138 88.49593654 5.66063391 89.49365234 4.46386719 C90.27796631 3.52849121 90.27796631 3.52849121 91.078125 2.57421875 C91.54887451 2.00751465 92.01962402 1.44081055 92.50463867 0.85693359 C95.11439759 -1.91647358 96.81192785 -2.62506453 100.59765625 -3.07421875 C106.65761414 -2.88553874 110.77551448 0.20803483 114.93359375 4.40625 C120.74597541 10.91848986 120.74597541 10.91848986 121.22265625 15.11328125 C120.61197998 21.46431449 115.48328574 26.20370641 111.41015625 30.86328125 C110.33715071 32.10278765 109.2642366 33.34237321 108.19140625 34.58203125 C107.64613281 35.20980469 107.10085938 35.83757813 106.5390625 36.484375 C103.9829649 39.43277535 101.44714776 42.398444 98.91015625 45.36328125 C97.91026361 46.53003993 96.91026335 47.69670639 95.91015625 48.86328125 C95.41515625 49.44078125 94.92015625 50.01828125 94.41015625 50.61328125 C89.91015625 55.86328125 89.91015625 55.86328125 88.40991211 57.61352539 C87.41067229 58.77933229 86.41148602 59.94518511 85.41235352 61.11108398 C82.90116164 64.04128523 80.38902232 66.97066416 77.875 69.8984375 C72.57941588 76.06752003 67.30226783 82.25111145 62.05883789 88.46459961 C58.65686502 92.49211032 55.22405117 96.49228644 51.78515625 100.48828125 C48.29196143 104.54952935 44.84567074 108.63846904 41.47265625 112.80078125 C36.85977885 118.47944982 32.06528623 123.99086475 27.26171875 129.5078125 C23.9801325 133.27715052 20.72258887 137.06664059 17.47265625 140.86328125 C17.00110107 141.41411377 16.5295459 141.96494629 16.04370117 142.5324707 C15.15250437 143.57380366 14.26950929 144.62223805 13.39668274 145.67901611 C11.91015625 147.36328125 11.91015625 147.36328125 10.35083008 148.70774841 C6.3627545 152.42297805 5.47223302 155.42907461 5.21655273 160.84594727 C5.21126628 162.75975955 5.20740439 164.67386229 5.2434063 166.58734322 C5.28191529 168.65287197 5.28327648 170.71563597 5.27565002 172.78147888 C5.26636506 177.16335336 5.3051488 181.54415164 5.34765625 185.92578125 C5.392486 191.01047757 5.41728779 196.09422889 5.40309334 201.17912102 C5.4061948 203.20611155 5.43983504 205.23105895 5.47520447 207.25770569 C5.47291329 217.50182444 5.47291329 217.50182444 2.52587891 221.16137695 C-2.34610537 225.26259276 -6.22103964 225.67477366 -12.52734375 225.73828125 C-13.80480469 225.76664063 -15.08226562 225.795 -16.3984375 225.82421875 C-21.52384638 225.1842206 -24.563283 223.32278444 -27.73529148 219.25117397 C-29.52100433 215.44405093 -29.50868498 211.98756307 -29.4775238 207.86793518 C-29.48290934 207.01443401 -29.48829488 206.16093284 -29.49384362 205.28156799 C-29.50814695 202.42267259 -29.50101361 199.56423866 -29.49389648 196.70532227 C-29.4995988 194.65522896 -29.50656252 192.60513882 -29.51469421 190.55505371 C-29.53265588 184.98689701 -29.53145157 179.41889763 -29.52575183 173.85072064 C-29.52266436 169.2034599 -29.5287475 164.55622958 -29.53479058 159.90897316 C-29.54884405 148.94636985 -29.54726762 137.98384446 -29.53588867 127.02124023 C-29.52440603 115.7087044 -29.53848382 104.39640559 -29.56528515 93.08390099 C-29.58743043 83.37336638 -29.59408217 73.66290624 -29.58820873 63.95234817 C-29.58483524 58.15176878 -29.58728041 52.35134134 -29.60445976 46.55078316 C-29.61990809 41.09652095 -29.61599663 35.64261033 -29.59715462 30.18836212 C-29.59346292 28.18647009 -29.59659405 26.18455213 -29.60704041 24.18268394 C-29.62021219 21.44991929 -29.60873673 18.7183251 -29.59104919 15.98561096 C-29.6006542 15.19329042 -29.61025921 14.40096987 -29.62015527 13.58463961 C-29.5512107 8.4080312 -28.493156 5.47889145 -25.08984375 1.36328125 C-17.09863253 -4.28903888 -8.68350998 -3.82956974 0 0 Z " fill="#FCFCFC" transform="translate(893.08984375,620.63671875)"/>
<path d="M0 0 C3.38994146 2.68827182 5.18960507 5.44104177 7.14453125 9.20703125 C7.51795654 9.89716309 7.89138184 10.58729492 8.27612305 11.29833984 C9.5426994 13.65426975 10.78325514 16.02256842 12.01953125 18.39453125 C12.47634277 19.26674316 12.9331543 20.13895508 13.40380859 21.03759766 C15.39874228 24.84955131 17.38877622 28.66395252 19.36791992 32.48413086 C22.81347572 39.1272319 26.35055443 45.712571 29.95703125 52.26953125 C34.93643273 61.32918437 39.7365662 70.47389646 44.48681641 79.65551758 C48.25779372 86.94295721 52.08335545 94.19490787 56.01953125 101.39453125 C60.40121448 94.72454149 64.04056159 87.72980924 67.66165161 80.63101196 C69.08689876 77.83747763 70.52037672 75.0481952 71.95341492 72.25865173 C72.66628052 70.87087264 73.3787777 69.48290422 74.09089661 68.09474182 C80.83546698 54.94942157 87.7958261 41.91929296 94.76953125 28.89453125 C95.086409 28.30266022 95.40328674 27.71078918 95.72976685 27.10098267 C97.24731213 24.26768204 98.76784537 21.43605117 100.29272461 18.60668945 C101.43208183 16.48728851 102.563297 14.36348766 103.68579102 12.23510742 C104.20455811 11.26033447 104.7233252 10.28556152 105.2578125 9.28125 C105.93517456 7.9967395 105.93517456 7.9967395 106.6262207 6.6862793 C108.80182081 3.10780406 111.32929965 0.40221232 115.01953125 -1.60546875 C121.11383642 -2.75533765 126.71058167 -0.55197935 132.01953125 2.39453125 C135.21753941 4.83894937 137.64747653 7.36804179 138.39291382 11.42825317 C138.46854637 17.58321075 136.90964812 21.77729599 133.99609375 27.13671875 C133.57588959 27.94456818 133.15568542 28.7524176 132.7227478 29.58474731 C131.38036253 32.1557113 130.01317555 34.71246767 128.64453125 37.26953125 C127.76394224 38.94573162 126.88502282 40.62281023 126.0078125 42.30078125 C123.80721123 46.50040745 121.58590612 50.68867677 119.35852051 54.87414551 C117.13762428 59.05454887 114.93400141 63.24401902 112.73046875 67.43359375 C112.31302399 68.2268808 111.89557922 69.02016785 111.46548462 69.8374939 C108.30308924 75.84936527 105.15585455 81.86901614 102.01953125 87.89453125 C95.37609317 100.64344263 95.37609317 100.64344263 92.30152893 106.4528656 C91.49309103 107.99259931 90.69372536 109.53716301 89.90733337 111.08827209 C87.79590576 115.2163315 85.58083316 119.111553 82.94360352 122.92749023 C71.31600155 140.71510735 72.48804684 158.7589092 72.90686035 179.2454834 C73.03977391 186.42896022 73.0569754 193.61398983 73.08908272 200.79847527 C73.10897784 203.2862738 73.15392166 205.77255153 73.2040863 208.25990295 C73.22350396 209.78207033 73.24264831 211.30424122 73.26147461 212.82641602 C73.28176224 213.50741867 73.30204987 214.18842133 73.32295227 214.89006042 C73.3572881 219.46262802 72.42422345 222.51659333 70.01953125 226.39453125 C63.71879459 231.07969441 56.6216188 231.10100797 49.01953125 230.39453125 C45.02126196 229.17128453 42.60264786 227.32556068 40.35105896 223.73057556 C38.82441569 219.90568363 38.6603983 216.68459787 38.77758789 212.64282227 C38.78667175 211.88885162 38.79575562 211.13488098 38.80511475 210.35806274 C38.82539456 208.72605044 38.8518821 207.09410585 38.8839283 205.46228218 C38.93046159 202.8550662 38.95017652 200.24893695 38.96153259 197.64134216 C38.99436343 190.22904111 39.03972885 182.81800645 39.18725586 175.40698242 C39.85223765 145.43775637 39.85223765 145.43775637 27.51496887 118.62104797 C25.07783593 114.9924665 23.16487452 111.10843955 21.20703125 107.20703125 C18.37463225 101.81541397 15.51118169 96.44115204 12.625 91.078125 C5.18218119 77.24754654 -2.13669601 63.36346172 -9.31713867 49.39477539 C-9.9731224 48.11864097 -10.6291279 46.84251774 -11.28515625 45.56640625 C-11.60174698 44.95051132 -11.91833771 44.33461639 -12.24452209 43.70005798 C-15.86712662 36.65984643 -19.55617655 29.65512777 -23.2578125 22.65625 C-25.68029496 18.06946348 -26.9456725 14.62744962 -25.98046875 9.39453125 C-23.18947289 4.10016125 -18.75354694 1.17922631 -13.28125 -0.9453125 C-8.38709642 -2.34957728 -4.62781509 -2.49283356 0 0 Z " fill="#FCFCFC" transform="translate(1058.98046875,616.60546875)"/>
<path d="M0 0 C3.86709165 3.81188828 5.56162355 6.07991573 5.64540654 11.72120655 C5.62356023 12.79807481 5.62356023 12.79807481 5.60127258 13.896698 C5.60554471 14.67361594 5.60981683 15.45053389 5.61421841 16.2509948 C5.62243053 18.84484382 5.59499462 21.43706263 5.56762695 24.03076172 C5.56621609 25.89369163 5.56700921 27.75662432 5.56983948 29.61955261 C5.57127354 34.67093316 5.54188508 39.72171957 5.50696969 44.77296209 C5.47570475 50.05402454 5.47277533 55.33510074 5.46684265 60.61624146 C5.45130465 70.61410051 5.41027662 80.61168607 5.3600952 90.60942471 C5.30420052 101.9926218 5.2767149 113.37583198 5.25161803 124.75913215 C5.19936086 148.17290637 5.11141925 171.58643786 5 195 C6.80284958 194.98667633 6.80284958 194.98667633 8.64212036 194.9730835 C19.97163023 194.89197928 31.30108115 194.83202562 42.63081551 194.79275131 C48.45549753 194.77188114 54.2799451 194.74357337 60.10449219 194.69824219 C65.72604551 194.6547649 71.34737339 194.6308586 76.96908188 194.62049103 C79.11329573 194.61310311 81.25749732 194.59867623 83.40161514 194.57707977 C86.40619777 194.54802133 89.40985012 194.54404509 92.41455078 194.54589844 C93.30000076 194.53151733 94.18545074 194.51713623 95.09773254 194.50231934 C100.54417164 194.53864556 103.69970632 195.3313834 108 199 C110.96142167 204.2124445 110.65343278 210.18208648 110 216 C108.53528856 219.77361618 106.37714283 221.74857145 103 224 C100.75791454 224.25726891 100.75791454 224.25726891 98.08598328 224.26742554 C96.56563477 224.28022049 96.56563477 224.28022049 95.01457214 224.29327393 C93.90334488 224.29236755 92.79211761 224.29146118 91.6472168 224.29052734 C90.47623444 224.29724457 89.30525208 224.30396179 88.0987854 224.31088257 C84.88581241 224.32664177 81.67299444 224.33323863 78.4599874 224.33451414 C76.45163919 224.33593579 74.44331806 224.34020568 72.43497658 224.34550858 C65.42546495 224.36401565 58.41602939 224.37217859 51.40649414 224.37060547 C44.87796079 224.36940475 38.34975841 224.39049124 31.82130879 224.4220928 C26.21269259 224.44827189 20.60418435 224.45897205 14.99550754 224.45769465 C11.64728641 224.45718536 8.29959323 224.46469328 4.95139122 224.48405075 C1.21430346 224.50363146 -2.52193191 224.49790254 -6.2590332 224.48583984 C-7.36418777 224.49707886 -8.46934235 224.50831787 -9.60798645 224.51989746 C-15.7283343 224.46966048 -19.34385452 224.09786261 -24 220 C-28.69276022 214.80444404 -29.29456611 209.48658764 -29.26742554 202.69447327 C-29.27195665 201.86138986 -29.27648776 201.02830644 -29.28115618 200.16997808 C-29.29380994 197.3802707 -29.29217919 194.59075829 -29.29052734 191.80102539 C-29.29651191 189.80019378 -29.30331729 187.79936447 -29.31088257 185.79853821 C-29.32855524 180.36470808 -29.33323843 174.93094094 -29.33451414 169.49708486 C-29.33641314 164.96166869 -29.34377054 160.4262672 -29.35085833 155.89085668 C-29.36714405 145.19196004 -29.37202704 134.49309706 -29.37060547 123.79418945 C-29.36940338 112.75431933 -29.39051825 101.71464451 -29.4220928 90.67482382 C-29.44823255 81.19784056 -29.45897376 71.72092119 -29.45769465 62.24390215 C-29.45718442 56.58303903 -29.46290159 50.92234953 -29.48405075 45.26152229 C-29.50339476 39.93859673 -29.50358381 34.61601111 -29.48901749 29.29307365 C-29.48692365 27.33955261 -29.49166435 25.38601049 -29.5037384 23.43252563 C-29.51915543 20.76545285 -29.50990652 18.09955747 -29.49447632 15.43251038 C-29.50476344 14.65964457 -29.51505057 13.88677877 -29.52564943 13.09049278 C-29.45946466 7.91323283 -28.24159249 5.00343134 -25 1 C-18.2502148 -5.11699284 -7.48452128 -4.40265957 0 0 Z " fill="#FAFAFA" transform="translate(1254,621)"/>
<path d="M0 0 C41.91 0 83.82 0 127 0 C127 21.12 127 42.24 127 64 C85.09 64 43.18 64 0 64 C0 42.88 0 21.76 0 0 Z " fill="#FAFAFA" transform="translate(351,627)"/>
<path d="M0 0 C52.47 0 104.94 0 159 0 C159 31.35 159 62.7 159 95 C106.53 95 54.06 95 0 95 C0 63.65 0 32.3 0 0 Z M16 15 C16 36.12 16 57.24 16 79 C57.91 79 99.82 79 143 79 C143 57.88 143 36.76 143 15 C101.09 15 59.18 15 16 15 Z " fill="#060606" transform="translate(335,612)"/>
<path d="M0 0 C3.73605018 2.66160818 6.21510916 5.38670031 8.75 9.19140625 C9.43416992 10.20895996 10.11833984 11.22651367 10.82324219 12.27490234 C11.9007373 13.90226318 11.9007373 13.90226318 13 15.5625 C13.75859058 16.69539353 14.51804063 17.82771199 15.27832031 18.95947266 C16.80657704 21.23567735 18.33136978 23.51413839 19.85351562 25.79443359 C22.78766527 30.17630176 25.76480937 34.52781904 28.75 38.875 C29.79829209 40.40617127 30.84647005 41.93742068 31.89453125 43.46875 C34.53212714 47.31915787 37.17488507 51.16600124 39.81860352 55.01220703 C41.43075399 57.36515414 43.03189749 59.72533635 44.6328125 62.0859375 C47.01363871 65.58832168 49.45676846 69.03866088 51.9296875 72.4765625 C53.22430718 74.31746306 54.51858576 76.15860354 55.8125 78 C56.42988037 78.8357959 57.04726074 79.6715918 57.68334961 80.53271484 C61.90228439 86.61583011 63.18094419 91.61645943 62 99 C59.41736271 104.26092782 55.78290162 107.53531494 50.625 110.25 C47.15602478 111.24113578 44.59671306 111.4417016 41 111 C35.16872871 107.02785593 31.7765793 101.70609239 27.9375 95.875 C26.60833434 93.89044989 25.27890251 91.90607801 23.94921875 89.921875 C23.28712402 88.92736328 22.6250293 87.93285156 21.94287109 86.90820312 C19.08014219 82.62310301 16.1666937 78.37346705 13.25 74.125 C12.18219572 72.56516984 11.11448572 71.00527514 10.046875 69.4453125 C7.2025874 65.29365689 4.35214261 61.14626148 1.5 57 C0.61327609 55.70963897 -0.2734426 54.41927434 -1.16015625 53.12890625 C-3.24725571 50.09224712 -5.33989542 47.05945617 -7.43359375 44.02734375 C-8.60166409 42.33079911 -9.76963442 40.63418561 -10.9375 38.9375 C-11.48148438 38.15181641 -12.02546875 37.36613281 -12.5859375 36.55664062 C-18.50936247 27.93739257 -22.45371848 21.87260277 -21 11 C-17.48842745 2.95264624 -8.78804408 -2.2877314 0 0 Z " fill="#FCFCFC" transform="translate(963,731)"/>
<path d="M0 0 C1.23652817 -0.0112793 2.47305634 -0.02255859 3.74705505 -0.03417969 C5.10940787 -0.02640321 6.47175837 -0.01821058 7.83410645 -0.00964355 C9.274996 -0.01506624 10.71588001 -0.02218973 12.15675354 -0.03088379 C16.06383193 -0.04910298 19.97048733 -0.04205565 23.87757301 -0.02936745 C27.96852372 -0.01923241 32.05943848 -0.02863452 36.15039062 -0.03491211 C43.02012629 -0.04218706 49.88968988 -0.03260488 56.75939941 -0.0135498 C64.69900092 0.00821875 72.63819155 0.00116726 80.57778311 -0.02085543 C87.39747427 -0.03901383 94.21704183 -0.04156563 101.03674936 -0.03110075 C105.10858806 -0.0248682 109.18023369 -0.02402351 113.25205994 -0.0372467 C117.08043567 -0.04881111 120.90828224 -0.0407693 124.73660088 -0.01766968 C126.14064595 -0.01238565 127.54473564 -0.01389122 128.94876289 -0.02272034 C130.86694868 -0.03366958 132.78523191 -0.01749676 134.70336914 0 C135.77629463 0.0015081 136.84922012 0.0030162 137.95465851 0.00457001 C141.56157229 0.6312791 143.24946158 1.98288934 145.85168457 4.50793457 C146.51574707 6.50793457 146.51574707 6.50793457 146.47668457 8.50793457 C146.4895752 9.16793457 146.50246582 9.82793457 146.51574707 10.50793457 C145.48000206 13.62735483 143.53956293 14.70578614 140.85168457 16.50793457 C137.93904114 17.01688576 137.93904114 17.01688576 134.66540527 17.02932739 C133.42046295 17.04349701 132.17552063 17.05766663 130.89285278 17.07226562 C129.52105567 17.06767843 128.14925994 17.06265909 126.77746582 17.05725098 C125.3267207 17.06594937 123.87598477 17.07631707 122.42526245 17.08822632 C118.49136021 17.1149823 114.55784252 17.11616679 110.62386703 17.11109972 C107.33845207 17.10895905 104.05311473 17.11872994 100.76771641 17.12831056 C93.01732632 17.15049164 85.2671301 17.1513804 77.51672363 17.13928223 C69.52245637 17.12719534 61.52889247 17.15184405 53.53474522 17.19442236 C46.66833541 17.22964862 39.80214958 17.2416583 32.93565273 17.23514688 C28.83574224 17.23152048 24.73633375 17.2367993 20.63650513 17.26457596 C16.78168851 17.28971638 12.92796934 17.28586362 9.07316971 17.25975418 C7.6594366 17.25501991 6.24562643 17.2605026 4.83198166 17.27700043 C-5.78253063 17.39193598 -5.78253063 17.39193598 -9.11911011 15.23234177 C-11.40930055 12.65673804 -12.13593633 10.81741218 -12.27331543 7.38293457 C-9.98568412 1.53676568 -5.98161254 0.00840775 0 0 Z " fill="#030303" transform="translate(347.1483154296875,737.4920654296875)"/>
<path d="M0 0 C5.71660533 3.19911777 10.28549999 7.76554482 12.6875 13.9375 C13.51470214 21.49551537 14.01618419 29.090173 9.171875 35.36328125 C3.48695277 41.39229088 -2.27178426 45.02369272 -10.75 45.375 C-17.2141992 45.15392616 -21.58364752 43.52074178 -26.2890625 39.06640625 C-32.61918328 32.17621306 -33.84344137 26.71396178 -33.6875 17.38671875 C-32.8868453 10.02236358 -28.62439718 5.78103582 -23.15625 1.1640625 C-16.03474899 -3.57354622 -7.63724638 -3.50713429 0 0 Z " fill="#FCFCFC" transform="translate(1675.3125,718.0625)"/>
<path d="M0 0 C5.28 0 10.56 0 16 0 C16 7.26 16 14.52 16 22 C10.72 22 5.44 22 0 22 C0 14.74 0 7.48 0 0 Z " fill="#F5F5F5" transform="translate(264,791)"/>
<path d="M0 0 C5.28 0 10.56 0 16 0 C16 7.26 16 14.52 16 22 C10.72 22 5.44 22 0 22 C0 14.74 0 7.48 0 0 Z " fill="#F6F6F6" transform="translate(264,731)"/>
<path d="M0 0 C5.28 0 10.56 0 16 0 C16 7.26 16 14.52 16 22 C10.72 22 5.44 22 0 22 C0 14.74 0 7.48 0 0 Z " fill="#F5F5F5" transform="translate(264,612)"/>
<path d="M0 0 C4.95 0 9.9 0 15 0 C15 6.93 15 13.86 15 21 C10.05 21 5.1 21 0 21 C0 14.07 0 7.14 0 0 Z " fill="#FFFFFF" transform="translate(265,851)"/>
<path d="M0 0 C4.95 0 9.9 0 15 0 C15 6.93 15 13.86 15 21 C10.05 21 5.1 21 0 21 C0 14.07 0 7.14 0 0 Z " fill="#FFFFFF" transform="translate(265,672)"/>
</svg>
